<svg width="24" height="21" viewBox="0 0 24 21" fill="none" xmlns="http://www.w3.org/2000/svg">
<path fill-rule="evenodd" clip-rule="evenodd" d="M17.21 7.98H22C22.55 7.98 23 8.43 23 8.98L22.97 9.25L20.43 18.52C20.19 19.36 19.42 19.98 18.5 19.98H5.5C4.58 19.98 3.81 19.36 3.58 18.52L1.04 9.25C1.01 9.16 1 9.07 1 8.98C1 8.43 1.45 7.98 2 7.98H6.79L11.17 1.43C11.36 1.14 11.68 1 12 1C12.32 1 12.64 1.14 12.83 1.42L17.21 7.98ZM14.8 7.98L12 3.78L9.2 7.98H14.8ZM18.5 17.98L5.51 17.99L3.31 9.98H20.7L18.5 17.98ZM10 13.98C10 12.88 10.9 11.98 12 11.98C13.1 11.98 14 12.88 14 13.98C14 15.08 13.1 15.98 12 15.98C10.9 15.98 10 15.08 10 13.98Z" fill="#219653"/>
<path d="M17.21 7.98L16.7942 8.25764L16.9426 8.48H17.21V7.98ZM23 8.98L23.4969 9.03522L23.5 9.00769V8.98H23ZM22.97 9.25L23.4522 9.38213L23.4626 9.34425L23.4669 9.30522L22.97 9.25ZM20.43 18.52L20.9108 18.6574L20.9122 18.6521L20.43 18.52ZM3.58 18.52L4.06225 18.388L4.06223 18.3879L3.58 18.52ZM1.04 9.25L1.52223 9.11787L1.51864 9.10477L1.51434 9.09189L1.04 9.25ZM6.79 7.98V8.48H7.05714L7.20563 8.25794L6.79 7.98ZM11.17 1.43L11.5857 1.70795L11.5882 1.70401L11.17 1.43ZM12.83 1.42L13.2458 1.14235L13.2437 1.13925L12.83 1.42ZM12 3.78L12.416 3.50265L12 2.87861L11.584 3.50265L12 3.78ZM14.8 7.98V8.48H15.7343L15.216 7.70265L14.8 7.98ZM9.2 7.98L8.78397 7.70265L8.26574 8.48H9.2V7.98ZM5.51 17.99L5.02786 18.1224L5.12889 18.4903L5.51039 18.49L5.51 17.99ZM18.5 17.98L18.5004 18.48L18.8811 18.4797L18.9821 18.1126L18.5 17.98ZM3.31 9.98V9.48H2.65416L2.82785 10.1124L3.31 9.98ZM20.7 9.98L21.1821 10.1126L21.3561 9.48H20.7V9.98ZM22 7.48H17.21V8.48H22V7.48ZM23.5 8.98C23.5 8.15386 22.8261 7.48 22 7.48V8.48C22.2739 8.48 22.5 8.70614 22.5 8.98H23.5ZM23.4669 9.30522L23.4969 9.03522L22.5031 8.92478L22.4731 9.19478L23.4669 9.30522ZM20.9122 18.6521L23.4522 9.38213L22.4878 9.11787L19.9478 18.3879L20.9122 18.6521ZM18.5 20.48C19.6517 20.48 20.6118 19.7038 20.9108 18.6574L19.9492 18.3826C19.7682 19.0162 19.1883 19.48 18.5 19.48V20.48ZM5.5 20.48H18.5V19.48H5.5V20.48ZM3.09775 18.652C3.38582 19.7041 4.34934 20.48 5.5 20.48V19.48C4.81066 19.48 4.23418 19.0159 4.06225 18.388L3.09775 18.652ZM0.557774 9.38213L3.09777 18.6521L4.06223 18.3879L1.52223 9.11787L0.557774 9.38213ZM0.5 8.98C0.5 9.10721 0.514124 9.25351 0.565658 9.40811L1.51434 9.09189C1.50588 9.06649 1.5 9.03279 1.5 8.98H0.5ZM2 7.48C1.17386 7.48 0.5 8.15386 0.5 8.98H1.5C1.5 8.70614 1.72614 8.48 2 8.48V7.48ZM6.79 7.48H2V8.48H6.79V7.48ZM10.7544 1.15206L6.37437 7.70206L7.20563 8.25794L11.5856 1.70794L10.7544 1.15206ZM12 0.5C11.539 0.5 11.0483 0.703364 10.7518 1.15599L11.5882 1.70401C11.6717 1.57664 11.821 1.5 12 1.5V0.5ZM13.2437 1.13925C12.9467 0.701492 12.4591 0.5 12 0.5V1.5C12.1809 1.5 12.3333 1.57851 12.4163 1.70075L13.2437 1.13925ZM17.6258 7.70236L13.2458 1.14236L12.4142 1.69764L16.7942 8.25764L17.6258 7.70236ZM11.584 4.05735L14.384 8.25735L15.216 7.70265L12.416 3.50265L11.584 4.05735ZM9.61602 8.25735L12.416 4.05735L11.584 3.50265L8.78397 7.70265L9.61602 8.25735ZM14.8 7.48H9.2V8.48H14.8V7.48ZM5.51039 18.49L18.5004 18.48L18.4996 17.48L5.50962 17.49L5.51039 18.49ZM2.82785 10.1124L5.02786 18.1224L5.99215 17.8576L3.79215 9.84758L2.82785 10.1124ZM20.7 9.48H3.31V10.48H20.7V9.48ZM18.9821 18.1126L21.1821 10.1126L20.2179 9.84742L18.0179 17.8474L18.9821 18.1126ZM12 11.48C10.6239 11.48 9.5 12.6039 9.5 13.98H10.5C10.5 13.1561 11.1761 12.48 12 12.48V11.48ZM14.5 13.98C14.5 12.6039 13.3761 11.48 12 11.48V12.48C12.8239 12.48 13.5 13.1561 13.5 13.98H14.5ZM12 16.48C13.3761 16.48 14.5 15.3561 14.5 13.98H13.5C13.5 14.8039 12.8239 15.48 12 15.48V16.48ZM9.5 13.98C9.5 15.3561 10.6239 16.48 12 16.48V15.48C11.1761 15.48 10.5 14.8039 10.5 13.98H9.5Z" fill="#219653"/>
</svg>
