<svg width="20" height="14" viewBox="0 0 20 14" fill="none" xmlns="http://www.w3.org/2000/svg">
<path fill-rule="evenodd" clip-rule="evenodd" d="M6.70131 6.70131C8.54896 6.70131 10.052 5.1983 10.052 3.35065C10.052 1.50301 8.54896 0 6.70131 0C4.85366 0 3.35065 1.50301 3.35065 3.35065C3.35065 5.1983 4.85366 6.70131 6.70131 6.70131ZM6.70131 1.91466C7.49589 1.91466 8.1373 2.55607 8.1373 3.35065C8.1373 4.14524 7.49589 4.78665 6.70131 4.78665C5.90673 4.78665 5.26531 4.14524 5.26531 3.35065C5.26531 2.55607 5.90673 1.91466 6.70131 1.91466ZM2.6518 11.488H6.74918C6.72046 11.6411 6.70131 11.8039 6.70131 11.9666V13.4026H0V11.9666C0 9.73604 4.46116 8.61597 6.70131 8.61597C7.23741 8.61597 7.89797 8.68298 8.59682 8.80744C7.91712 9.26695 7.35229 9.84135 7.0268 10.5402C6.97415 10.5402 6.9191 10.5378 6.86406 10.5354C6.80901 10.533 6.75396 10.5306 6.70131 10.5306C5.23659 10.5306 3.59956 11.0093 2.6518 11.488ZM13.8813 9.09463C12.1198 9.09463 8.61597 10.0615 8.61597 11.9666V13.4026H19.1466V11.9666C19.1466 10.0615 15.6428 9.09463 13.8813 9.09463ZM16.2746 5.26531C16.2746 6.16521 15.7672 6.94064 15.0397 7.35229C14.695 7.54376 14.3025 7.65864 13.8813 7.65864C13.4601 7.65864 13.0676 7.54376 12.7229 7.35229C11.9953 6.94064 11.488 6.16521 11.488 5.26531C11.488 3.9442 12.5602 2.87199 13.8813 2.87199C15.2024 2.87199 16.2746 3.9442 16.2746 5.26531Z" fill="#828282"/>
</svg>
