<svg width="18" height="18" viewBox="0 0 18 18" fill="none" xmlns="http://www.w3.org/2000/svg">
<path fill-rule="evenodd" clip-rule="evenodd" d="M15.4609 0.526531L16.7916 2.13485C17.0692 2.46034 17.2319 2.89114 17.2319 3.35065V15.3173C17.2319 16.3703 16.3703 17.2319 15.3173 17.2319H1.91466C0.861597 17.2319 0 16.3703 0 15.3173V3.35065C0 2.89114 0.162746 2.46034 0.440372 2.13485L1.76149 0.526531C2.02954 0.201039 2.42204 0 2.87199 0H14.3599C14.8099 0 15.2024 0.201039 15.4609 0.526531ZM14.13 1.91465H3.10159L2.33572 2.84326H14.9055L14.13 1.91465ZM1.91455 15.3173V4.78664H15.3172V15.3173H1.91455ZM7.22774 6.7013H10.004V9.57329H12.4452L8.61586 13.4026L4.78654 9.57329H7.22774V6.7013Z" fill="#828282"/>
</svg>
