<svg width="26" height="40" viewBox="0 0 26 40" fill="none" xmlns="http://www.w3.org/2000/svg">
<path d="M21.7238 9.22339H13.7127V3.34234L20.7483 2.27406C21.3725 2.17931 21.8018 1.59628 21.707 0.972005C21.6122 0.347732 21.0291 -0.0821708 20.405 0.0132615L12.3977 1.22903C11.8389 1.31387 11.4259 1.79423 11.4259 2.35943V9.22331H3.43007C1.53873 9.22331 0 10.762 0 12.6534V14.9401C0 15.5715 0.511919 16.0835 1.14336 16.0835H2.38733L4.57137 37.9967C4.62968 38.5814 5.12163 39.0267 5.70916 39.0267H19.4371C20.0248 39.0267 20.5168 38.5811 20.5749 37.9964L22.7516 16.0835H24.0105C24.6419 16.0835 25.1539 15.5716 25.1539 14.9402V12.6535C25.1539 10.762 23.6151 9.22339 21.7238 9.22339ZM19.2043 28.6603H5.9389L5.4827 24.0831H19.6589L19.2043 28.6603ZM6.74421 36.74L6.16681 30.947H18.9771L18.4016 36.74H6.74421ZM19.8861 21.7964H5.25479L4.6854 16.0835H20.4536L19.8861 21.7964ZM22.8671 13.7968C21.9084 13.7968 3.68222 13.7968 2.28671 13.7968V12.6535C2.28671 12.023 2.79962 11.5101 3.43007 11.5101H21.7238C22.3542 11.5101 22.8671 12.0229 22.8671 12.6535V13.7968Z" fill="#828282"/>
</svg>
