<svg width="32" height="39" viewBox="0 0 32 39" fill="none" xmlns="http://www.w3.org/2000/svg">
<path d="M27.8899 20.3014C27.5732 19.7818 27.2745 19.2902 26.9874 18.7927C26.9865 18.7912 26.9856 18.7897 26.985 18.788C26.9841 18.7874 26.9841 18.7865 26.9835 18.7859C26.9821 18.7836 26.9812 18.7812 26.9797 18.7791L26.9788 18.7783L25.8713 16.8555C25.0342 15.4048 23.8272 14.168 22.3801 13.28C21.1948 12.5522 19.8879 12.0697 18.5292 11.8508C17.5301 9.63939 16.7098 6.8253 17.2541 5.19352C17.2806 5.11517 17.2933 5.03447 17.2933 4.95465C17.2933 4.81886 17.2565 4.68543 17.1869 4.56938C17.1864 4.5685 17.1855 4.56702 17.1849 4.56555C17.1849 4.56555 17.184 4.56467 17.184 4.56408C17.126 4.46747 17.0453 4.38382 16.9466 4.32049C16.9195 4.30311 16.8915 4.2872 16.8629 4.27366C16.7755 4.23212 16.6827 4.20886 16.589 4.20208C16.3984 4.18912 16.2052 4.2495 16.0529 4.37851C16.0529 4.37851 16.0529 4.37851 16.0524 4.37851C16.0423 4.38676 16.0335 4.39589 16.0235 4.40502C16.0235 4.40502 16.0229 4.40502 16.0229 4.40561C15.4309 4.95995 14.8276 5.53137 14.2321 6.12635C13.1635 3.31756 13.4026 1.89697 13.5738 1.38652C13.6003 1.30729 13.612 1.22746 13.612 1.14735C13.612 0.896395 13.4863 0.654279 13.2654 0.512602C12.9749 0.326449 12.595 0.360911 12.3431 0.597137L12.2745 0.661053C10.9022 1.94674 9.04659 3.68486 7.60567 5.86243C7.49021 5.87009 7.37416 5.87893 7.25722 5.88894C4.93237 6.09012 2.64022 6.74607 0.67442 7.34488C0.344235 7.44591 0.124798 7.75725 0.140704 8.10187C0.157198 8.44737 0.405206 8.73691 0.743933 8.80554C1.75805 9.01201 3.04286 9.99903 4.35035 11.5569C3.85787 11.6986 3.38071 11.842 2.92298 11.9813C2.5928 12.0818 2.37248 12.3931 2.38927 12.7386C2.40488 13.0832 2.65377 13.3728 2.99161 13.4414C3.63166 13.5725 5.34562 14.2172 7.73232 17.3674C6.92173 18.9918 6.54148 20.79 6.62748 22.6088C6.74677 25.103 7.89963 27.0959 9.01419 29.024L9.21242 29.3663L11.8009 33.8566C12.6627 35.3526 13.9145 36.6165 15.4235 37.5122C15.4356 37.5205 15.4482 37.5282 15.4603 37.5349C17.0936 38.4969 18.9395 39 20.8252 39C20.9565 39 21.0885 38.9976 21.2205 38.9923C21.2302 38.9923 21.2408 38.9923 21.2505 38.9918C24.4914 38.8627 27.4963 37.1706 29.2907 34.4652C29.2939 34.4613 29.2969 34.4569 29.2998 34.4525C30.4203 32.755 31.0273 30.7781 31.0544 28.7345V28.7248C31.0883 25.5578 29.4618 22.8854 27.8899 20.3014C29.4618 22.8854 27.5732 19.7818 27.8899 20.3014ZM26.3668 21.9181L26.5936 21.0722C26.5959 21.0766 26.5989 21.0804 26.6012 21.0849C27.8869 23.1976 29.2109 25.3731 29.4922 27.7271L29.1664 27.6397C27.8189 27.2786 26.4722 26.9166 25.1255 26.5554L26.3668 21.9181ZM22.4366 15.1551C22.8664 15.4944 23.2631 15.8729 23.6198 16.284C23.9765 16.6949 24.2932 17.1391 24.5644 17.6089L25.517 19.2616L25.1052 20.7997L21.206 19.7532H21.2054L22.4366 15.1551ZM17.9245 26.1837L16.8794 30.0926H16.8786L12.9797 29.0452L14.0253 25.1372L17.9245 26.1837ZM9.8722 16.7123C9.83302 16.7636 9.79532 16.8154 9.75762 16.8684C9.79385 16.8178 9.8233 16.7627 9.84569 16.7055C9.85482 16.7076 9.86307 16.71 9.8722 16.7123C10.7626 15.5224 11.9602 14.573 13.3461 13.9601C14.0804 13.6358 14.8494 13.4125 15.6323 13.2956C15.2197 14.8393 14.8073 16.3818 14.3941 17.9256C12.8869 17.5214 11.3794 17.117 9.8722 16.7123C9.83302 16.7636 11.3794 17.117 9.8722 16.7123ZM14.4153 23.6804L14.5932 23.0144L15.4603 19.7729H15.4612L19.3595 20.8195L18.3145 24.7269H18.3136L14.4153 23.6804ZM18.6447 29.3271L19.3804 26.5743H19.3813L23.2805 27.6217L22.2355 31.5291H22.2346L18.3354 30.4832L18.6447 29.3271ZM19.7704 25.1175L19.9483 24.4515L20.8155 21.21H20.8163L24.7152 22.2566L23.6696 26.164L19.7704 25.1175ZM17.2111 13.2317C18.5751 13.2868 19.9047 13.647 21.1073 14.2879L19.7501 19.3626H19.7492L15.8509 18.3161C16.3042 16.621 16.7581 14.9268 17.2111 13.2317ZM12.8371 9.94248C12.8439 9.93423 12.8498 9.9251 12.8565 9.91627C12.8618 9.91008 12.8665 9.90419 12.8719 9.89801C12.9735 9.76693 13.0783 9.63498 13.1861 9.50302C13.1876 9.50155 13.1891 9.49919 13.1905 9.49683C13.9343 8.58522 14.7537 7.72573 15.587 6.90689C15.6865 8.59435 16.2889 10.3964 16.8191 11.6912C15.4226 11.7062 14.0315 12.0078 12.7361 12.581C11.9449 12.9306 11.2053 13.3748 10.5343 13.9006C10.5349 13.8988 10.5358 13.8973 10.5358 13.8959C10.8589 13.0458 11.2831 12.2426 11.7611 11.4718C11.7632 11.4688 11.7647 11.4665 11.767 11.4635C11.7694 11.4588 11.7723 11.455 11.7747 11.4506C12.094 10.9436 12.4468 10.4426 12.8153 9.96811C12.8227 9.95986 12.8303 9.95161 12.8371 9.94248C12.8439 9.93423 12.8303 9.95161 12.8371 9.94248ZM9.46042 5.85036C10.2348 4.82269 11.0966 3.89958 11.9096 3.09518C11.9216 3.09901 11.9337 3.10195 11.9464 3.1049C12.0188 3.99236 12.2512 5.12136 12.7723 6.52664C12.7729 6.52899 12.7738 6.53135 12.7744 6.53341C11.7596 6.15816 10.6489 5.93254 9.45218 5.86096C9.45512 5.85713 9.45748 5.85419 9.46042 5.85036C10.2348 4.82269 9.45748 5.85419 9.46042 5.85036ZM3.02165 8.23323C4.67229 7.78435 6.33205 7.43325 7.94705 7.35019C9.39179 7.27625 10.7988 7.41793 12.1305 7.89745C12.132 7.89981 12.1334 7.90275 12.1349 7.90511C12.2436 7.94369 12.3499 7.98434 12.4554 8.02646C12.1991 8.32484 11.9499 8.6291 11.7075 8.93896C11.7046 8.94191 11.7013 8.94486 11.6993 8.9481C11.6834 8.96606 11.6704 8.98256 11.6601 8.99758C11.6568 9.00141 11.6539 9.00524 11.651 9.00818C11.3638 9.37872 11.0872 9.75751 10.8253 10.146C10.7835 10.2058 10.7435 10.2662 10.7046 10.3277H10.704C10.162 10.3593 9.56145 10.3778 9.0351 10.4974C7.99447 10.6497 6.95649 10.8635 5.93825 11.1195C4.84047 9.71568 3.86023 8.81084 3.02165 8.23323C4.67229 7.78435 3.01989 8.25886 3.02165 8.23323ZM6.82807 14.0791C6.31173 13.589 5.80423 13.1804 5.3088 12.8538C6.76886 12.4494 8.25544 12.0983 9.76292 11.9227V11.9233C9.76587 11.9227 9.76881 11.9227 9.77117 11.9227C9.48045 12.4885 9.22449 13.0703 9.01271 13.6691L9.01183 13.6697C8.91375 13.9515 8.82185 14.2355 8.7435 14.5233C8.74173 14.5277 8.74114 14.5315 8.73967 14.5362C8.71434 14.6284 8.69019 14.7212 8.66721 14.8143C8.65749 14.852 8.64748 14.8906 8.63923 14.9288C8.56206 15.2325 8.50639 15.5427 8.45838 15.852C7.99771 15.2864 7.44279 14.6596 6.82807 14.0791C6.31173 13.589 7.44279 14.6596 6.82807 14.0791ZM9.07221 18.059C10.7167 18.4999 12.3605 18.9411 14.0044 19.3824L12.9593 23.2898H12.9584C11.347 22.8568 9.73582 22.4241 8.12436 21.9921C8.14086 20.6257 8.46427 19.2849 9.07221 18.059ZM10.3202 28.2694C9.4295 26.7304 8.58062 25.2621 8.26015 23.5897C9.13848 23.825 10.0162 24.0609 10.894 24.2972C11.4527 24.4465 12.0106 24.5964 12.5685 24.7463V24.7472L11.5234 28.6547H11.5228L10.3623 28.3425L10.3202 28.2694ZM15.3858 35.674C14.4583 34.9742 13.6807 34.0988 13.1078 33.1035L11.4286 30.1907H11.4277V30.1898L11.8521 30.3038C11.8554 30.3053 11.8583 30.3059 11.8613 30.3068L11.8742 30.3097L16.4895 31.5495L15.3858 35.674ZM20.6399 37.4905C19.2765 37.4625 17.941 37.1276 16.7233 36.5087L17.9457 31.94L21.8455 32.9857L20.6399 37.4905ZM22.2307 37.3797L23.3014 33.3765L24.302 33.6449C24.4876 33.6946 24.674 33.7444 24.8593 33.7942C25.7055 34.0204 26.5514 34.2472 27.3968 34.4749C26.0725 36.0192 24.2366 37.0516 22.2307 37.3797ZM28.3249 33.163C27.1146 32.8372 25.9037 32.5123 24.6929 32.188L23.6914 31.9197L23.8693 31.2537L24.7364 28.0123H24.7373C26.0831 28.3743 27.4292 28.7354 28.7758 29.0965L29.5207 29.2962C29.4159 30.6626 29.0088 31.9816 28.3249 33.163Z" fill="#828282"/>
</svg>
