<svg width="16" height="20" viewBox="0 0 16 20" fill="none" xmlns="http://www.w3.org/2000/svg">
<path fill-rule="evenodd" clip-rule="evenodd" d="M13.9098 13.5V8.5C13.9098 5.43 12.2903 2.86 9.43877 2.18V1.5C9.43877 0.67 8.77308 0 7.94843 0C7.12378 0 6.4581 0.67 6.4581 1.5V2.18C3.61654 2.86 1.98711 5.42 1.98711 8.5V13.5L0 15.5V16.5H15.8969V15.5L13.9098 13.5ZM7.94855 19.5C9.04146 19.5 9.93566 18.6 9.93566 17.5H5.96144C5.96144 18.6 6.85564 19.5 7.94855 19.5ZM3.97433 14.5H11.9228V8.5C11.9228 6.02 10.4225 4 7.94855 4C5.4746 4 3.97433 6.02 3.97433 8.5V14.5Z" fill="#333333"/>
</svg>
