<svg width="30" height="38" viewBox="0 0 30 38" fill="none" xmlns="http://www.w3.org/2000/svg">
<path d="M11.9513 11.6389C10.7884 11.6389 9.84225 10.7047 9.84225 9.55646V4.58074H9.91054C10.3183 4.58074 10.6488 4.25014 10.6488 3.84246V0.738281C10.6488 0.330602 10.3183 0 9.91054 0H4.53245C4.1247 0 3.79417 0.330602 3.79417 0.738281V3.84246C3.79417 4.25014 4.1247 4.58074 4.53245 4.58074H4.60075V9.55646C4.60075 10.7047 3.65464 11.6389 2.4917 11.6389C1.11783 11.6389 3.65682e-09 12.7492 3.65682e-09 14.1141V35.3247C-7.38245e-05 36.6896 1.11776 37.8 2.49162 37.8H11.9512C13.3252 37.8 14.4429 36.6896 14.4429 35.3248V14.1142C14.443 12.7492 13.3252 11.6389 11.9513 11.6389ZM5.27074 1.47656H9.17226V3.10418H5.27074V1.47656ZM12.9664 35.3248C12.9664 35.8754 12.5111 36.3234 11.9513 36.3234H2.49162C1.93186 36.3234 1.47649 35.8754 1.47649 35.3248V14.1142C1.47649 13.5635 1.93186 13.1155 2.49162 13.1155C4.46874 13.1155 6.07723 11.519 6.07723 9.55653V4.58074H8.36568V9.55646C8.36568 11.5189 9.97418 13.1154 11.9513 13.1154C12.5111 13.1154 12.9664 13.5634 12.9664 14.1141V35.3248Z" fill="#828282"/>
<path d="M10.3778 16.6238H4.0647C3.65694 16.6238 3.32642 16.9544 3.32642 17.3621V30.4815C3.32642 30.8892 3.65694 31.2198 4.0647 31.2198H10.3778C10.7856 31.2198 11.1161 30.8892 11.1161 30.4815V17.3621C11.1161 16.9544 10.7856 16.6238 10.3778 16.6238ZM9.63953 29.7432H4.80298V18.1004H9.63953V29.7432Z" fill="#828282"/>
<path d="M26.5088 22.1661C25.8115 22.0714 25.1389 22.1726 24.5634 22.4219C24.5724 22.239 24.5777 22.0559 24.5795 21.8727C25.2582 21.6263 27.4545 20.6974 28.3366 18.7299C29.364 16.4385 28.1533 13.7533 28.1013 13.6402C27.9469 13.3044 27.5681 13.1345 27.2145 13.2426C27.0954 13.2791 24.2853 14.1617 23.2581 16.4532C22.967 17.1026 22.8556 17.7835 22.8466 18.4286C22.5955 18.1929 22.3105 17.98 21.9882 17.8078C20.0649 16.7799 17.6751 17.6637 17.5742 17.7017C17.2285 17.8325 17.0328 18.1988 17.1162 18.5589C17.1405 18.6639 17.7339 21.1418 19.6572 22.1695C20.359 22.5446 21.1227 22.6651 21.8148 22.6651C22.2849 22.6651 22.7219 22.6095 23.0839 22.5402C23.0291 23.4301 22.879 24.3052 22.6388 25.1522C22.5791 25.075 22.5152 24.9997 22.4471 24.9261C21.8655 24.2981 21.0438 23.8841 20.1333 23.7606C18.2003 23.4982 16.4432 24.6382 16.2174 26.3016C15.9917 27.9651 17.3811 29.532 19.3146 29.7943C19.502 29.8197 19.689 29.8323 19.8743 29.8323C19.9592 29.8323 20.0436 29.8296 20.1276 29.8244C19.5591 30.4865 18.9149 31.0959 18.1997 31.6402C17.8752 31.8871 17.8124 32.3503 18.0593 32.6748C18.2046 32.8657 18.4247 32.9661 18.6474 32.9661C18.7151 32.9661 18.7832 32.9568 18.8494 32.9379C18.9333 33.6022 19.2037 34.2561 19.6359 34.8238C20.3859 35.8093 21.4847 36.345 22.5292 36.345C23.1303 36.345 23.7135 36.1674 24.2015 35.7961C25.5374 34.7794 25.6628 32.689 24.4812 31.1363V31.1362C23.8562 30.3151 22.9889 29.8063 22.1127 29.6595C22.7295 28.7684 23.2416 27.8046 23.6367 26.7851C24.1571 27.3221 24.8932 27.7066 25.7414 27.8218C25.916 27.8455 26.0903 27.8572 26.263 27.8572C26.93 27.8572 27.5724 27.6823 28.1124 27.3483C28.8379 26.8993 29.296 26.2211 29.4022 25.4386C29.6138 23.8793 28.3158 22.4113 26.5088 22.1661ZM19.5131 28.3312C18.3864 28.1784 17.5643 27.357 17.6805 26.5003C17.7841 25.7369 18.5982 25.1991 19.5716 25.1991C19.6906 25.1991 19.812 25.2072 19.9348 25.2239C20.5067 25.3015 21.0142 25.552 21.3637 25.9295C21.6765 26.2674 21.8199 26.6671 21.7673 27.0548C21.7147 27.4426 21.47 27.7896 21.0784 28.0319C20.6409 28.3025 20.085 28.4089 19.5131 28.3312ZM24.6054 17.0572C25.1014 15.951 26.2607 15.2604 26.9962 14.9174C27.2295 15.6952 27.4851 17.0199 26.9893 18.126C26.4933 19.2322 25.334 19.9227 24.5986 20.2657C24.3652 19.4879 24.1095 18.1632 24.6054 17.0572ZM20.3532 20.8674C19.5317 20.4284 19.0395 19.5269 18.7828 18.8999C19.4486 18.7654 20.4749 18.6733 21.2923 19.1101C22.1137 19.5491 22.6059 20.4506 22.8626 21.0776C22.1969 21.2122 21.1705 21.3043 20.3532 20.8674ZM23.3062 32.0306C23.9948 32.9354 23.9953 34.0975 23.3073 34.6211C22.6194 35.1448 21.4995 34.8346 20.8108 33.9297C20.4613 33.4704 20.2796 32.9344 20.2993 32.4203C20.317 31.9602 20.4982 31.5763 20.8097 31.3393C21.0364 31.1667 21.3101 31.0847 21.5998 31.0847C22.189 31.0847 22.8446 31.424 23.3062 32.0306ZM27.939 25.2401C27.8932 25.5774 27.6789 25.8802 27.3355 26.0927C26.9462 26.3336 26.4506 26.4282 25.94 26.3588C24.9567 26.2253 24.2108 25.4877 24.3112 24.7479C24.4008 24.0874 25.1404 23.6081 25.9979 23.6081C26.1007 23.6081 26.2052 23.615 26.3103 23.6293C27.2935 23.7627 28.0394 24.5004 27.939 25.2401Z" fill="#828282"/>
</svg>
