<svg width="38" height="35" viewBox="0 0 38 35" fill="none" xmlns="http://www.w3.org/2000/svg">
<path d="M23.6378 28.423C26.8614 28.423 29.484 31.0456 29.484 34.2692C29.484 34.6728 29.8112 35 30.2148 35C30.6183 35 30.9456 34.6728 30.9456 34.2692C30.9456 31.0456 33.5682 28.423 36.7918 28.423C37.1953 28.423 37.5226 28.0957 37.5226 27.6922C37.5226 27.2887 37.1953 26.9614 36.7918 26.9614C33.5682 26.9614 30.9456 24.3388 30.9456 21.1152C30.9456 20.7116 30.6183 20.3844 30.2148 20.3844C29.8112 20.3844 29.484 20.7116 29.484 21.1152C29.484 24.3388 26.8614 26.9614 23.6378 26.9614C23.2342 26.9614 22.907 27.2887 22.907 27.6922C22.907 28.0957 23.2342 28.423 23.6378 28.423ZM30.2148 24.2993C30.9321 25.775 32.1319 26.9748 33.6077 27.6922C32.132 28.4095 30.9322 29.6093 30.2148 31.0851C29.4974 29.6094 28.2977 28.4096 26.8218 27.6922C28.2977 26.9749 29.4974 25.7751 30.2148 24.2993Z" fill="#828282"/>
<path d="M0.837469 6.49959C2.85223 6.49959 4.49137 8.13873 4.49137 10.1535C4.49137 10.557 4.81854 10.8843 5.22215 10.8843C5.62576 10.8843 5.95293 10.557 5.95293 10.1535C5.95293 8.13873 7.59207 6.49959 9.60683 6.49959C10.0104 6.49959 10.3376 6.17235 10.3376 5.76881C10.3376 5.36527 10.0104 5.03803 9.60683 5.03803C7.59207 5.03803 5.95293 3.39889 5.95293 1.38413C5.95293 0.980594 5.62576 0.653351 5.22215 0.653351C4.81854 0.653351 4.49137 0.980594 4.49137 1.38413C4.49137 3.39889 2.85223 5.03803 0.837469 5.03803C0.43386 5.03803 0.106689 5.36527 0.106689 5.76881C0.106689 6.17235 0.43386 6.49959 0.837469 6.49959ZM5.22215 4.01669C5.65426 4.73359 6.25737 5.33677 6.97419 5.76881C6.2573 6.20085 5.65418 6.80403 5.22215 7.52093C4.79004 6.80403 4.18692 6.20085 3.4701 5.76881C4.18692 5.33677 4.79004 4.73359 5.22215 4.01669Z" fill="#828282"/>
<path d="M20.4954 21.3344C20.899 21.3344 21.2262 21.0072 21.2262 20.6036C21.2262 20.2 20.899 19.8729 20.4954 19.8729C20.0918 19.8729 19.7646 20.2 19.7646 20.6036C19.7646 21.0072 20.0918 21.3344 20.4954 21.3344Z" fill="#828282"/>
<path d="M22.4451 18.937C22.6509 19.284 23.0994 19.3985 23.4465 19.1925C25.3551 18.0599 27.5439 17.4613 29.7764 17.4613C30.1799 17.4613 30.5072 17.134 30.5072 16.7305C30.5072 16.3269 30.1799 15.9997 29.7764 15.9997C22.9262 15.9997 17.3531 10.4266 17.3531 3.57645C17.3531 3.17292 17.026 2.84567 16.6224 2.84567C16.2188 2.84567 15.8916 3.17292 15.8916 3.57645C15.8916 10.4266 10.3185 15.9997 3.46833 15.9997C3.06472 15.9997 2.73755 16.3269 2.73755 16.7305C2.73755 17.134 3.06472 17.4613 3.46833 17.4613C10.3185 17.4613 15.8916 23.0343 15.8916 29.8845C15.8916 30.2881 16.2188 30.6153 16.6224 30.6153C17.026 30.6153 17.3531 30.2881 17.3531 29.8845C17.3531 27.6521 17.9518 25.4632 19.0844 23.5546C19.2903 23.2075 19.1759 22.7591 18.8289 22.5532C18.4815 22.347 18.0334 22.4616 17.8275 22.8087C17.3332 23.6416 16.9299 24.522 16.6219 25.4344C15.2368 21.3511 12.0004 18.1152 7.91695 16.7305C12.0008 15.3457 15.2375 12.109 16.6224 8.02507C18.007 12.1085 21.243 15.3449 25.3262 16.73C24.4139 17.0381 23.5335 17.4413 22.7005 17.9356C22.3535 18.1416 22.2391 18.5899 22.4451 18.937Z" fill="#828282"/>
</svg>
