<svg width="20" height="20" viewBox="0 0 20 20" fill="none" xmlns="http://www.w3.org/2000/svg">
<path fill-rule="evenodd" clip-rule="evenodd" d="M13.3042 12.5786H14.2017L19.8711 18.2962L18.1782 20L12.4975 14.2939V13.3905L12.1908 13.0703C10.8956 14.191 9.21409 14.8656 7.38491 14.8656C3.30617 14.8656 0 11.538 0 7.43282C0 3.32762 3.30617 0 7.38491 0C11.4637 0 14.7698 3.32762 14.7698 7.43282C14.7698 9.27387 14.0995 10.9663 12.9861 12.2699L13.3042 12.5786ZM2.27255 7.43291C2.27255 10.2802 4.55619 12.5787 7.38518 12.5787C10.2142 12.5787 12.4978 10.2802 12.4978 7.43291C12.4978 4.58557 10.2142 2.28711 7.38518 2.28711C4.55619 2.28711 2.27255 4.58557 2.27255 7.43291Z" fill="#828282"/>
</svg>
