<svg width="30" height="33" viewBox="0 0 30 33" fill="none" xmlns="http://www.w3.org/2000/svg">
<path d="M28.1859 13.1029C27.2476 11.4797 25.9411 10.0323 24.3761 8.87589C25.6909 7.66991 26.1891 6.23457 26.213 6.16483C26.3188 5.85289 26.1717 5.5125 25.8726 5.37402C25.5743 5.23605 25.2185 5.34633 25.0491 5.62856C24.9864 5.73179 24.5373 6.41559 23.5362 6.41559C23.1888 6.41559 22.7744 6.33301 22.2872 6.11523C19.8153 5.01047 17.1987 5.43394 16.7236 5.52408H16.3504C15.7935 4.18617 14.0546 0.396275 12.1003 0.0359918C11.3966 -0.0944251 10.7931 0.133175 10.4459 0.660382C10.023 1.30315 9.98494 2.53859 10.7314 3.65695C11.0079 4.07061 11.3533 4.65799 11.7478 5.38359C10.6431 5.3277 9.00984 5.41078 7.43451 6.11523C5.54347 6.95967 4.75668 5.76855 4.67335 5.62982C4.50718 5.3501 4.15772 5.23807 3.85938 5.36949C3.56153 5.50041 3.4082 5.8335 3.50237 6.14545C3.52553 6.22224 4.02252 7.83105 5.34507 9.20395C3.88657 10.3674 2.67354 11.7957 1.81047 13.3723C0.775192 15.2653 0.25 17.3059 0.25 19.4374C0.25 23.0714 1.79939 26.4849 4.61343 29.0482C7.41085 31.5969 11.1257 33 15.0742 33C19.0227 33 22.7376 31.5969 25.535 29.0482C28.3491 26.4849 29.8984 23.0714 29.8984 19.4374C29.8984 17.2304 29.306 15.0402 28.1859 13.1029ZM7.96046 7.29226C9.73494 6.49868 11.6607 6.63791 12.4362 6.74113L12.5057 6.90025V6.90151L13.2199 8.53877C13.3617 8.86305 13.7376 9.0126 14.0629 8.87388C14.3884 8.73591 14.5417 8.36153 14.4065 8.03473C14.2293 7.60622 13.9191 6.89975 13.6905 6.38286C13.6054 6.19076 13.5377 6.03794 13.5009 5.95687C13.4971 5.94781 13.4926 5.93874 13.4881 5.93043C13.4798 5.90777 13.4699 5.88587 13.4591 5.86447C12.7957 4.57541 12.2383 3.59174 11.8032 2.94092C11.3926 2.3266 11.3636 1.61182 11.5228 1.36937C11.5454 1.33538 11.5988 1.25406 11.8664 1.30315C12.7469 1.46605 14.2937 3.75237 15.3139 6.40024C15.4101 6.64899 15.6485 6.81314 15.9154 6.81314H16.7873C16.8326 6.81314 16.8782 6.8081 16.9222 6.79904C16.9351 6.79652 17.5924 6.66183 18.534 6.66183C19.4505 6.66183 20.6371 6.78947 21.7612 7.29226C22.5281 7.63492 23.1875 7.73311 23.7366 7.70013C23.506 7.93805 23.2399 8.17068 22.9342 8.3794C21.5976 9.29282 19.9223 9.47334 17.9547 8.91643C17.7143 8.84795 17.4557 8.92549 17.2921 9.11432C17.1284 9.30315 17.0891 9.57002 17.1901 9.79863C17.2888 10.0192 17.466 10.1944 17.7354 10.4608C18.2299 10.9485 19.0446 11.7541 19.4641 13.0918C18.8163 12.8171 18.2022 12.7798 17.7614 12.7526C17.5511 12.7398 17.3339 12.7262 17.2405 12.6927L17.1773 12.6708C15.7245 12.1577 15.508 11.6924 15.508 11.4603C15.508 11.1046 15.2135 10.8158 14.8577 10.8158C14.502 10.8158 14.2132 11.1046 14.2132 11.4603C14.2132 12.014 12.5817 13.0203 11.9153 13.258C11.8387 13.2859 11.7582 13.3116 11.6743 13.3393C11.3012 13.4604 10.8525 13.6054 10.3279 13.9413C10.777 12.594 11.5686 11.6648 12.0578 11.0917C12.2917 10.8165 12.4465 10.6355 12.5308 10.4472C12.6321 10.2183 12.5928 9.95145 12.4291 9.76263C12.3048 9.61962 12.1262 9.54031 11.9417 9.54031C11.883 9.54031 11.8239 9.54812 11.766 9.56474C9.78327 10.1262 8.09793 9.85427 6.75599 8.75605H6.75524C6.35039 8.42397 6.01654 8.05084 5.74388 7.68275C6.34863 7.76458 7.08531 7.68351 7.96046 7.29226C9.73494 6.49868 7.08531 7.68351 7.96046 7.29226ZM15.0742 31.7109C7.61125 31.7109 1.53906 26.2052 1.53906 19.4374C1.53906 15.7938 3.28383 12.4002 6.34334 10.0585C7.24921 10.6846 8.31042 11.0441 9.40763 11.1187C9.73242 11.1406 10.0587 11.1388 10.3832 11.1161C9.65638 12.1031 8.81069 13.6016 8.71023 15.6513C8.69664 15.9272 8.86029 16.1805 9.11684 16.2822C9.19363 16.3127 9.2742 16.3273 9.35401 16.3273C9.45849 16.3273 9.56096 16.3024 9.65311 16.254C9.67375 16.2429 9.69314 16.2306 9.71228 16.2185C9.76062 16.1855 9.80518 16.1463 9.84445 16.1004C10.8004 14.9783 11.4764 14.7585 12.0726 14.5651C12.168 14.5342 12.2582 14.5045 12.3498 14.4722C12.3717 14.4639 13.9413 13.8322 14.8569 12.8461C15.47 13.4347 16.3575 13.7484 16.748 13.8864L16.8062 13.907C17.0723 14.0017 17.3681 14.0198 17.6821 14.0392C18.3754 14.0817 19.162 14.1301 19.8767 14.9692C20.0552 15.1795 20.3478 15.2522 20.6044 15.151C20.8609 15.049 21.0246 14.7958 21.011 14.5201C20.9196 12.6502 20.202 11.3636 19.5222 10.5043C20.5412 10.5758 21.5777 10.4487 22.5256 10.0575C22.7875 9.94944 23.043 9.82481 23.287 9.6808C24.8537 10.7682 26.1564 12.1673 27.0703 13.7479C28.0769 15.4894 28.6094 17.4565 28.6094 19.4371C28.6094 26.2052 22.5372 31.7109 15.0742 31.7109Z" fill="black" fill-opacity="0.8"/>
</svg>
